<svg width="52" height="52" viewBox="0 0 52 52" fill="none" xmlns="http://www.w3.org/2000/svg">
<rect width="52" height="52" rx="26" fill="#F9F5FE"/>
<path d="M24.4961 14.707C20.7227 15.2047 17.4852 17.5125 15.8063 20.8977C15.0461 22.4289 14.6961 23.8344 14.6414 25.5899C14.6031 26.7328 14.7016 27.657 14.9586 28.6797C16.4297 34.5313 22.2648 38.2117 28.1711 37.0195C32.8414 36.0735 36.3961 32.3219 37.1289 27.5586C37.2547 26.7438 37.2602 25.1469 37.1344 24.332C36.4344 19.7602 33.1586 16.1016 28.7617 14.9805C27.4219 14.6359 25.8086 14.5375 24.4961 14.707ZM23.5008 19.6234C23.8781 19.7766 24.0859 20.1922 24.0039 20.6242C23.9766 20.7883 23.8508 20.9524 23.3859 21.4172L22.8117 22.0078L27.1375 22.0188C31.4086 22.0352 31.4633 22.0352 31.6109 22.15C31.9008 22.3633 31.9883 22.5383 31.9883 22.8828C31.9883 23.2274 31.9008 23.4024 31.6109 23.6156C31.4633 23.7305 31.4086 23.7305 27.1375 23.7469L22.8117 23.7578L23.3859 24.3485C24.0094 24.9774 24.0859 25.125 24.0039 25.5461C23.9547 25.8195 23.6266 26.1422 23.3531 26.1914C22.8992 26.2789 22.8008 26.2078 21.3133 24.7258C19.3555 22.768 19.3609 23.0031 21.2586 21.0836C22.8063 19.525 22.9922 19.4047 23.5008 19.6234ZM29.2047 25.8305C29.5656 26.093 31.8953 28.4774 31.9555 28.6414C32.043 28.8766 32.0266 29.1555 31.9117 29.3797C31.775 29.6367 29.2484 32.1524 29.0461 32.2289C28.3516 32.4914 27.668 31.9063 27.8539 31.2117C27.8977 31.0586 28.0562 30.8563 28.4609 30.457C28.7617 30.1563 29.0078 29.8938 29.0078 29.8719C29.0078 29.8445 27.0883 29.8281 24.7422 29.8281C20.0117 29.8281 20.2961 29.85 20.0008 29.4672C19.8805 29.3086 19.8531 29.2102 19.8531 28.975C19.8531 28.6469 19.957 28.461 20.2578 28.2531L20.4383 28.1328H24.7203C27.0773 28.1328 29.0078 28.1164 29.0078 28.0891C29.0078 28.0672 28.7836 27.8266 28.5102 27.5586C27.7609 26.8203 27.6406 26.4156 28.0398 25.9617C28.2477 25.7266 28.357 25.6774 28.7125 25.6774C28.9367 25.6719 29.0352 25.7047 29.2047 25.8305Z" fill="#662AB2"/>
</svg>
