<svg width="52" height="52" viewBox="0 0 52 52" fill="none" xmlns="http://www.w3.org/2000/svg">
<rect width="52" height="52" rx="26" fill="#F9F5FE"/>
<g clip-path="url(#clip0_67_861)">
<path d="M25.0285 15.0274C20.67 15.4048 16.9075 18.3415 15.5512 22.4321C15.1684 23.5805 15.0426 24.3134 15.0098 25.5766C14.9879 26.2657 15.0043 26.8727 15.0426 27.2173C15.5293 31.3626 18.1543 34.7477 22.0207 36.2352C25.641 37.6243 29.666 36.9954 32.7559 34.5509C36.8301 31.3298 38.077 25.7024 35.7473 21.0594C34.052 17.6852 30.7598 15.4266 26.9754 15.0438C26.445 14.9946 25.5262 14.9837 25.0285 15.0274ZM26.2864 20.5618C26.5379 20.6766 26.7184 20.8571 26.8004 21.0759C26.8442 21.1798 26.8606 22.4321 26.8606 24.8985V28.5735L27.6754 27.7696C28.7035 26.7579 28.9114 26.6594 29.42 26.9657C29.7754 27.1844 29.9231 27.693 29.7371 28.0485C29.6934 28.1305 28.9223 28.9126 28.02 29.793C26.2098 31.5485 26.1551 31.5868 25.7012 31.4555C25.5043 31.3954 25.22 31.1384 23.9129 29.8423C23.0598 29.0001 22.2942 28.2071 22.2067 28.0923C21.7528 27.4798 22.316 26.6321 23.0762 26.7743C23.2348 26.8016 23.4317 26.9712 24.1371 27.6657L25.0012 28.5188V24.8712C25.0012 22.4266 25.0176 21.1798 25.0614 21.0759C25.1762 20.7641 25.6082 20.4579 25.9309 20.4579C26.0075 20.4579 26.166 20.5071 26.2864 20.5618Z" fill="#662AB2"/>
</g>
<defs>
<clipPath id="clip0_67_861">
<rect width="28" height="28" fill="white" transform="translate(12 12)"/>
</clipPath>
</defs>
</svg>
