<svg width="52" height="52" viewBox="0 0 52 52" fill="none" xmlns="http://www.w3.org/2000/svg">
<rect width="52" height="52" rx="26" fill="#F9F5FE"/>
<path d="M26.4375 14.8273C26.1641 14.882 17.3266 18.2453 17.0203 18.4094C16.4242 18.7266 15.8664 19.3938 15.6039 20.1102C15.4781 20.4492 15.4727 20.4547 15.4617 23.8125C15.4453 26.443 15.4617 27.2031 15.5109 27.3125C15.5492 27.3891 15.6805 27.4984 15.7953 27.5531C15.9812 27.6461 16.0414 27.6516 16.2328 27.5914C17.9828 27.0828 19.6508 27.2359 21.0781 28.0344C22.2102 28.6742 23.2109 29.7898 23.6812 30.9492C23.9984 31.7203 24.0969 32.1797 24.1242 33.0328C24.157 33.9188 24.0859 34.3781 23.7797 35.2695C23.55 35.9531 23.5445 36.1172 23.7523 36.3469L23.9109 36.5273H28.3078C32.393 36.5273 32.7211 36.5219 33.0492 36.4289C34.7227 35.9531 35.882 34.6516 36.1117 32.9727C36.2266 32.1523 36.1664 31.8297 35.8219 31.4906C35.532 31.1953 35.3188 31.1406 34.4766 31.1406C33.4539 31.1406 32.9016 30.9602 32.3984 30.4625C31.9008 29.9758 31.7203 29.5164 31.7531 28.8C31.775 28.2094 31.9391 27.8266 32.3492 27.3945C32.8852 26.8313 33.4211 26.6617 34.6844 26.6562C35.2477 26.6562 35.3898 26.6398 35.5703 26.5469C36.0406 26.3063 36.2047 25.8688 36.1555 24.9938C36.0844 23.8453 35.7234 23.0305 34.9414 22.2539C34.3836 21.6961 34.0281 21.4664 33.3445 21.2203L32.8633 21.0508L30.8836 21.0344L28.9039 21.018L28.8875 18.6828L28.8711 16.3477L28.6906 15.9813C28.4664 15.5219 28.0344 15.1172 27.5969 14.9531C27.2852 14.8383 26.7 14.7727 26.4375 14.8273ZM27.1211 16.5664L27.2578 16.6977V18.8633V21.0234H23.1727C18.8305 21.0234 18.7648 21.0289 18.0648 21.2914C17.9008 21.357 17.6219 21.4938 17.4469 21.5977C17.2719 21.7016 17.1133 21.7891 17.1023 21.7891C17.0859 21.7891 17.0859 21.5375 17.0969 21.2258C17.1242 20.5695 17.2172 20.3344 17.6 20.0063C17.8023 19.8258 18.1523 19.6781 19.9078 19.0164C21.0508 18.5844 23.0523 17.8297 24.3594 17.3375C25.6664 16.8398 26.793 16.4352 26.8641 16.4352C26.9352 16.4297 27.05 16.4898 27.1211 16.5664ZM28.3953 24.9609C28.4937 25.0211 28.6195 25.1469 28.6797 25.2453C28.8984 25.6062 28.7672 26.0984 28.3953 26.3281C28.2203 26.432 28.1109 26.4375 25.2125 26.4375H22.2102L21.975 26.1969C21.7453 25.9727 21.7344 25.9453 21.7344 25.6445C21.7344 25.3438 21.7453 25.3164 21.975 25.0922L22.2102 24.8516H25.2125C28.1109 24.8516 28.2203 24.857 28.3953 24.9609Z" fill="#662AB2"/>
<path d="M33.7 27.8594C33.2297 28.0015 32.9344 28.3625 32.9016 28.8328C32.8797 29.232 33.0383 29.5656 33.3719 29.8008L33.6125 29.9648L34.6516 29.9812C35.3898 29.9922 35.7453 29.9812 35.8602 29.932C36.1008 29.8281 36.1719 29.5984 36.1719 28.8984C36.1719 27.8648 36.0898 27.8047 34.7391 27.8101C34.2469 27.8101 33.782 27.832 33.7 27.8594Z" fill="#662AB2"/>
<path d="M17.5508 28.9586C16.2875 29.1555 15.2102 29.8445 14.5102 30.9109C13.75 32.0703 13.6078 33.5523 14.1273 34.8922C14.5977 36.1063 15.7734 37.1453 17.0695 37.4953C17.6656 37.6539 18.6391 37.6539 19.2461 37.4898C20.8047 37.0797 22.0188 35.8438 22.3906 34.3016C22.5383 33.6781 22.5383 32.7867 22.3906 32.2016C21.9969 30.6758 20.7719 29.4453 19.257 29.0625C18.743 28.9367 17.9937 28.8875 17.5508 28.9586ZM18.5625 30.9328C18.907 31.1734 18.9727 31.3102 18.9891 31.9117L19.0109 32.4531H19.4594C20.2031 32.4531 20.6023 32.7484 20.6023 33.3117C20.6023 33.5852 20.4875 33.7766 20.2031 33.968C20.05 34.0773 19.9516 34.0938 19.5141 34.0938H19V34.5422C19 35.0891 18.8742 35.4063 18.6062 35.5703C18.2289 35.8 17.7039 35.6633 17.4687 35.2859C17.3812 35.1383 17.3594 35.007 17.3594 34.5969V34.0938H16.818C16.3531 34.0938 16.2602 34.0773 16.1016 33.968C15.6148 33.6398 15.6039 33 16.0742 32.6391C16.2602 32.4969 16.3258 32.4805 16.818 32.4641L17.3594 32.4422V31.9117C17.3594 31.4852 17.3812 31.3539 17.4687 31.2063C17.7039 30.8234 18.2125 30.6977 18.5625 30.9328Z" fill="#662AB2"/>
</svg>
